<svg width="198" height="40" viewBox="0 0 198 40" fill="none" xmlns="http://www.w3.org/2000/svg">
<g clip-path="url(#clip0)">
<path d="M34.5192 9.13289C29.2297 6.15061 23.9552 3.14257 18.6228 0.235307C18.0458 -0.0798612 16.9755 -0.0777173 16.3963 0.237451C11.6882 2.78881 7.02935 5.43022 2.39191 8.10594C1.89642 8.39106 1.48889 9.02356 1.30442 9.57883C1.02772 10.4129 1.36876 11.1954 2.1195 11.7164C2.97963 12.3146 3.86336 12.2396 4.7621 11.7293C7.29746 10.2907 9.83279 8.85633 12.381 7.44128C12.396 7.43056 12.4089 7.422 12.4261 7.41339L14.6203 6.17844C14.9013 6.01983 15.2617 6.11417 15.4247 6.38861C15.429 6.395 15.4311 6.40361 15.4354 6.41C15.4418 6.41 15.4461 6.41217 15.4526 6.41217C15.4505 6.41644 15.4461 6.42289 15.444 6.42717C15.577 6.69517 15.4783 7.02106 15.2081 7.17328L14.363 7.64928C13.5543 8.13167 12.7092 8.56044 11.9177 9.06856C10.5942 9.91978 10.2768 11.1333 11.0103 12.2267C11.7568 13.3373 13.1317 13.5388 14.4251 12.6233C19.646 8.9335 25.0212 9.03428 30.5467 11.9072C31.1001 12.1946 31.2953 12.5268 31.291 13.1357C31.2631 16.5962 31.2674 20.0587 31.2846 23.5191C31.291 24.9771 32.1618 25.8818 33.4831 25.8883C34.7894 25.8947 35.6775 24.9599 35.6838 23.5363C35.6946 21.4888 35.686 19.4391 35.686 17.3916C35.686 15.3441 35.6667 13.2944 35.6946 11.2469C35.7053 10.3035 35.345 9.59817 34.5192 9.13289Z" fill="url(#paint0_linear)"/>
<path d="M15.4148 11.8844C15.0516 12.1049 14.7145 12.3207 14.4072 12.5278C14.7449 12.2964 15.0809 12.0822 15.4148 11.8844C20.1593 9.0045 29.374 5.32921 35.1687 9.78461L31.2202 12.3864C28.8801 10.9808 22.6353 7.60644 15.4148 11.8844Z" fill="url(#paint1_linear)"/>
<path d="M1.17568 30.867C6.46516 33.8493 11.7396 36.8573 17.072 39.7645C17.649 40.0798 18.7193 40.0776 19.2984 39.7624C24.0067 37.211 28.6655 34.5697 33.3029 31.8939C33.7984 31.6088 34.2059 30.9763 34.3904 30.421C34.6671 29.587 34.326 28.8044 33.5753 28.2834C32.7152 27.6853 31.8315 27.7603 30.9327 28.2706C28.3974 29.7092 25.862 31.1435 23.3138 32.5586C23.2988 32.5693 23.2859 32.5779 23.2688 32.5865L21.0745 33.8214C20.7935 33.98 20.4332 33.8857 20.2701 33.6113C20.2658 33.6049 20.2637 33.5963 20.2594 33.5899C20.2529 33.5899 20.2487 33.5877 20.2422 33.5877C20.2444 33.5834 20.2487 33.577 20.2508 33.5727C20.1178 33.3047 20.2165 32.9788 20.4868 32.8266L21.3319 32.3506C22.1405 31.8682 22.9857 31.4394 23.7772 30.9313C25.1006 30.0802 25.418 28.8666 24.6844 27.7732C23.938 26.6626 22.5631 26.461 21.2697 27.3765C16.0488 31.0664 10.6735 30.9656 5.14814 28.0927C4.59474 27.8053 4.39955 27.473 4.40384 26.8642C4.43172 23.4037 4.42743 19.9412 4.41027 16.4808C4.40384 15.0228 3.53299 14.118 2.21169 14.1116C0.905409 14.1052 0.0173919 15.04 0.010957 16.4636C0.000232189 18.5111 0.00881477 20.5608 0.00881477 22.6083C0.00881477 24.6558 0.0281167 26.7055 0.000232189 28.753C-0.0104926 29.6964 0.349863 30.4017 1.17568 30.867Z" fill="url(#paint2_linear)"/>
<path d="M20.2803 28.1156C20.6435 27.8951 20.9805 27.6793 21.2878 27.4722C20.9501 27.7036 20.6141 27.9178 20.2803 28.1156C15.5358 30.9955 6.32109 34.6708 0.526367 30.2154L4.47486 27.6136C6.81503 29.0192 13.0598 32.3936 20.2803 28.1156Z" fill="url(#paint3_linear)"/>
<path d="M190.7 16.8556L193.409 13.0345H197.403L192.669 19.6559C193.756 20.9015 194.712 22.1378 195.556 23.3647C196.399 24.5916 197.074 25.6873 197.58 26.652H193.438C193.297 26.3898 193.119 26.0713 192.913 25.678C192.707 25.294 192.472 24.8819 192.21 24.4604C191.947 24.039 191.685 23.6831 191.394 23.3834C191.113 23.0931 190.832 22.8215 190.56 22.578C190.298 22.8028 190.035 23.0463 189.763 23.3179C189.492 23.5894 189.238 23.9266 188.994 24.3293C188.751 24.732 188.517 25.1348 188.282 25.5281C188.048 25.9215 187.842 26.2961 187.654 26.6426H183.727C183.942 26.2211 184.233 25.706 184.589 25.116C184.945 24.526 185.339 23.9173 185.761 23.2898C186.183 22.6623 186.642 22.0535 187.139 21.4541C187.635 20.8641 188.123 20.3021 188.592 19.787C187.748 18.5883 186.933 17.4269 186.145 16.3218C185.367 15.2073 184.589 14.1115 183.83 13.0251H188.001L190.7 16.8556Z" fill="#315C90"/>
<path d="M53.8126 19.4311C53.8126 18.1855 53.6532 17.3052 53.3345 16.7901C53.0159 16.275 52.4628 16.0127 51.6848 16.0127C51.4411 16.0127 51.188 16.0221 50.935 16.0502C50.6725 16.0783 50.4288 16.1063 50.1851 16.1438V26.6613H46.3232V13.5027C46.6514 13.4185 47.0356 13.3248 47.4762 13.2311C47.9167 13.1375 48.3854 13.0532 48.8728 12.9689C49.3602 12.8846 49.8664 12.8285 50.3913 12.791C50.9069 12.7441 51.4224 12.7254 51.9191 12.7254C52.9034 12.7254 53.7001 12.8472 54.3187 13.1C54.928 13.3529 55.4341 13.6526 55.837 13.9897C56.3903 13.5964 57.0275 13.278 57.7397 13.0532C58.4525 12.8285 59.1181 12.7161 59.7175 12.7161C60.8053 12.7161 61.7047 12.8659 62.3986 13.1656C63.1014 13.4653 63.6547 13.8961 64.067 14.4487C64.4792 15.0012 64.7697 15.6568 64.9197 16.4155C65.0792 17.174 65.1542 18.017 65.1542 18.9535V26.6426H61.2925V19.4218C61.2925 18.1761 61.1331 17.2958 60.8142 16.7807C60.4959 16.2656 59.9425 16.0033 59.1647 16.0033C58.9586 16.0033 58.6681 16.0595 58.2931 16.1626C57.9181 16.2656 57.6181 16.3967 57.3742 16.5466C57.4964 16.9399 57.5714 17.3613 57.6086 17.8015C57.6464 18.2417 57.6647 18.71 57.6647 19.2157V26.652H53.8126V19.4311Z" fill="#315C90"/>
<path d="M75.5403 13.0347C75.362 13.7089 75.1748 14.4395 74.9592 15.2262C74.7431 16.0129 74.5187 16.8089 74.2842 17.605C74.0498 18.4011 73.8153 19.1878 73.5715 19.9464C73.3281 20.705 73.0937 21.3981 72.8687 22.0162C72.6248 21.3981 72.372 20.705 72.1003 19.9464C71.9409 19.4875 71.772 19.0192 71.6126 18.5416C71.5098 18.2325 71.4065 17.9234 71.3031 17.605C71.0409 16.7996 70.797 16.0035 70.5631 15.2262C70.3287 14.4395 70.1226 13.7089 69.9537 13.0347H65.8576C66.6354 15.7132 67.4604 18.1201 68.3415 20.2742C68.7259 21.2201 69.1098 22.1192 69.5037 22.9808C70.0004 24.086 70.497 25.1256 70.9942 26.0902C70.7315 26.7458 70.422 27.2609 70.0476 27.6262C69.6726 28.0008 69.1476 28.1787 68.4537 28.1787C68.107 28.1787 67.7792 28.1506 67.4698 28.1038C67.357 28.0851 67.2354 28.0569 67.1042 28.0289L65.7354 30.9041C66.0637 31.0446 66.4854 31.1663 66.9915 31.2787C67.507 31.3911 68.0603 31.4473 68.6692 31.4473C69.4003 31.4473 70.0287 31.363 70.5815 31.2038C71.1253 31.0352 71.6126 30.7823 72.0437 30.4264C72.4748 30.0706 72.8781 29.621 73.2342 29.0778C73.5998 28.5346 73.9653 27.879 74.3215 27.1017C75.3248 24.9476 76.2526 22.7186 77.1053 20.4241C77.9587 18.1295 78.7648 15.6663 79.5426 13.044H75.5403V13.0347Z" fill="#315C90"/>
<path d="M86.3748 8.50146C89.0559 8.50146 91.1087 8.96974 92.5426 9.91569C93.9765 10.8616 94.6892 12.3975 94.6892 14.5422C94.6892 16.6964 93.9676 18.2604 92.5142 19.2156C91.0615 20.171 88.9904 20.6486 86.2904 20.6486H85.0254V26.6519H80.9854V8.96974C81.8665 8.80119 82.8037 8.67941 83.7881 8.60452C84.772 8.53896 85.6342 8.50146 86.3748 8.50146ZM86.6376 11.948C86.347 11.948 86.0565 11.9574 85.7659 11.9761C85.4842 11.9949 85.2315 12.0136 85.0254 12.0323V17.2114H86.2904C87.687 17.2114 88.7465 17.0241 89.4492 16.6401C90.162 16.2561 90.5087 15.5537 90.5087 14.5141C90.5087 14.0178 90.4148 13.5964 90.237 13.2685C90.0587 12.9407 89.7965 12.6785 89.4587 12.4819C89.1215 12.2852 88.7087 12.1447 88.2309 12.0697C87.762 11.9855 87.2187 11.948 86.6376 11.948Z" fill="#315C90"/>
<path d="M111.571 23.4958C111.29 23.3741 111.084 23.2149 110.934 23.0275C110.784 22.8403 110.69 22.6061 110.634 22.3251C110.587 22.0441 110.559 21.7351 110.559 21.3886V8.84814H106.697V22.1753C106.697 22.8964 106.772 23.552 106.922 24.1327C107.072 24.7133 107.344 25.2004 107.747 25.6124C108.15 26.0151 108.703 26.3336 109.406 26.5584C110.109 26.7831 111.562 26.9049 112.687 26.9236V23.7393C112.227 23.6925 111.852 23.6176 111.571 23.4958Z" fill="#315C90"/>
<path d="M124.328 14.4488C123.203 13.2687 121.675 12.6787 119.744 12.6787C118.919 12.6787 118.104 12.8285 117.316 13.147C116.529 13.456 115.835 13.9149 115.226 14.5237C114.617 15.1231 114.13 15.8817 113.764 16.7902C113.389 17.6986 113.211 18.7569 113.211 19.9651C113.211 20.9672 113.351 21.9038 113.642 22.7654C113.923 23.627 114.364 24.3763 114.964 25.0038C115.564 25.6312 116.314 26.1276 117.223 26.4929C118.132 26.8581 119.2 27.036 120.419 27.036C120.907 27.036 121.385 27.008 121.872 26.9612C122.359 26.9049 122.809 26.8488 123.231 26.7645C123.653 26.6895 124.037 26.5959 124.384 26.4929C124.731 26.3898 125.003 26.2868 125.218 26.1838L123.859 23.3367C123.606 23.4022 123.325 23.4678 123.025 23.524C122.341 23.6551 121.647 23.7207 120.935 23.7207C119.829 23.7207 118.948 23.4865 118.291 23.0183C117.635 22.55 117.26 21.9225 117.176 21.1264H125.94C125.959 20.9204 125.978 20.6862 125.997 20.4147C126.015 20.143 126.024 19.8995 126.024 19.6748C126.005 17.3708 125.443 15.6288 124.328 14.4488ZM117.176 18.4666C117.223 18.1388 117.307 17.811 117.42 17.4926C117.532 17.1742 117.691 16.8932 117.898 16.6497C118.104 16.4062 118.366 16.2095 118.676 16.069C118.985 15.9192 119.36 15.8443 119.791 15.8443C120.241 15.8443 120.616 15.9192 120.916 16.0784C121.216 16.2282 121.469 16.4343 121.666 16.6684C121.863 16.9119 122.013 17.1835 122.107 17.5019C122.2 17.811 122.257 18.1294 122.275 18.4572H117.176V18.4666Z" fill="#315C90"/>
<path d="M138.631 13.2033C138.191 13.1096 137.732 13.0253 137.244 12.9598C136.757 12.8941 136.27 12.838 135.782 12.7911C135.295 12.7537 134.807 12.7256 134.348 12.7256C133.261 12.7256 132.286 12.8848 131.423 13.2033C130.561 13.5216 129.83 13.9712 129.23 14.5613C128.63 15.1513 128.18 15.8537 127.871 16.6685C127.562 17.4926 127.402 18.4011 127.402 19.4032C127.402 21.4074 127.899 22.9621 128.902 24.0766C129.38 24.6105 129.971 25.0225 130.655 25.2941C131.395 25.5938 132.248 25.7437 133.232 25.7437C133.748 25.7437 134.226 25.6969 134.667 25.6032C135.107 25.5095 135.538 25.3691 135.951 25.1724V25.6688C135.951 26.4274 135.726 27.0455 135.266 27.5325C134.807 28.0195 134.029 28.2536 132.923 28.2536C132.08 28.2536 131.32 28.1881 130.655 28.0476C130.252 27.9633 129.867 27.8603 129.492 27.7479L128.077 30.7168C128.78 30.9603 129.558 31.157 130.383 31.2974C131.208 31.4473 132.042 31.5222 132.867 31.5222C135.229 31.5222 136.982 30.979 138.116 29.902C139.25 28.8249 139.812 27.1673 139.812 24.9476V13.5029C139.466 13.3999 139.072 13.2969 138.631 13.2033ZM135.951 22.1192C135.707 22.2597 135.416 22.3815 135.07 22.4845C134.723 22.5875 134.348 22.6343 133.954 22.6343C133.213 22.6343 132.623 22.4376 132.201 22.0443C131.63 21.5198 131.339 20.6301 131.339 19.3939C131.339 18.3543 131.592 17.502 132.089 16.8277C132.586 16.1534 133.345 15.8162 134.367 15.8162C134.713 15.8162 135.013 15.8256 135.276 15.8537C135.538 15.8818 135.763 15.9099 135.951 15.9473V22.1192Z" fill="#315C90"/>
<path d="M152.214 14.4488C151.089 13.2687 149.561 12.6787 147.63 12.6787C146.796 12.6787 145.99 12.8285 145.203 13.147C144.415 13.456 143.722 13.9149 143.122 14.5237C142.513 15.1231 142.025 15.8817 141.66 16.7902C141.285 17.6986 141.106 18.7569 141.106 19.9651C141.106 20.9672 141.248 21.9038 141.538 22.7654C141.819 23.627 142.26 24.3763 142.86 25.0038C143.459 25.6312 144.209 26.1276 145.119 26.4929C146.028 26.8581 147.096 27.036 148.315 27.036C148.802 27.036 149.28 27.008 149.768 26.9612C150.255 26.9049 150.705 26.8488 151.127 26.7645C151.549 26.6895 151.933 26.5959 152.28 26.4929C152.626 26.3898 152.898 26.2868 153.105 26.1838L151.745 23.3367C151.493 23.4022 151.211 23.4678 150.911 23.524C150.227 23.6551 149.533 23.7207 148.821 23.7207C147.715 23.7207 146.834 23.4865 146.178 23.0183C145.521 22.55 145.146 21.9225 145.062 21.1264H153.826C153.845 20.9204 153.864 20.6862 153.883 20.4147C153.901 20.143 153.911 19.8995 153.911 19.6748C153.901 17.3708 153.339 15.6288 152.214 14.4488ZM145.062 18.4666C145.119 18.1388 145.194 17.811 145.306 17.4926C145.419 17.1742 145.578 16.8932 145.784 16.6497C145.99 16.4062 146.253 16.2095 146.562 16.069C146.871 15.9192 147.246 15.8443 147.678 15.8443C148.128 15.8443 148.503 15.9192 148.802 16.0784C149.102 16.2282 149.355 16.4343 149.552 16.6684C149.749 16.9119 149.899 17.1835 149.993 17.5019C150.086 17.811 150.143 18.1294 150.161 18.4572H145.062V18.4666Z" fill="#315C90"/>
<path d="M161.605 26.8862C160.621 26.8862 159.636 26.858 158.662 26.7925C157.687 26.7363 156.675 26.5865 155.615 26.3617V8.96987C156.44 8.81065 157.35 8.69826 158.334 8.62338C159.318 8.54843 160.236 8.51099 161.08 8.51099C162.224 8.51099 163.274 8.59526 164.23 8.75449C165.186 8.92304 166.01 9.19465 166.704 9.59738C167.398 9.99071 167.932 10.5152 168.326 11.1614C168.71 11.8077 168.907 12.6037 168.907 13.559C168.907 14.9919 168.213 16.1252 166.835 16.9493C167.979 17.3802 168.757 17.9702 169.169 18.71C169.582 19.4499 169.788 20.2928 169.788 21.22C169.788 23.1025 169.104 24.5167 167.726 25.4626C166.367 26.4085 164.324 26.8862 161.605 26.8862ZM159.562 15.7505H161.53C162.777 15.7505 163.667 15.5913 164.201 15.2729C164.736 14.9545 165.007 14.4394 165.007 13.7276C165.007 13.0064 164.726 12.4913 164.182 12.201C163.63 11.9107 162.814 11.7608 161.746 11.7608C161.399 11.7608 161.033 11.7702 160.63 11.7702C160.236 11.7795 159.88 11.7983 159.571 11.8358V15.7505H159.562ZM159.562 18.8318V23.4678C159.852 23.5052 160.171 23.5239 160.517 23.5427C160.865 23.5614 161.24 23.5708 161.661 23.5708C162.87 23.5708 163.845 23.4022 164.586 23.0557C165.326 22.7092 165.701 22.0723 165.701 21.1357C165.701 20.3115 165.392 19.7122 164.764 19.3657C164.145 19.0098 163.255 18.8318 162.092 18.8318H159.562Z" fill="#315C90"/>
<path d="M184.308 19.8154C184.308 20.883 184.149 21.8664 183.84 22.7562C183.53 23.6459 183.08 24.4045 182.49 25.0319C181.899 25.6594 181.197 26.1464 180.381 26.493C179.556 26.8395 178.638 27.0081 177.625 27.0081C176.622 27.0081 175.713 26.8395 174.888 26.493C174.063 26.1464 173.36 25.6594 172.779 25.0319C172.189 24.4045 171.729 23.6459 171.401 22.7562C171.073 21.8664 170.904 20.8924 170.904 19.8154C170.904 18.7477 171.073 17.7737 171.41 16.8933C171.748 16.0129 172.217 15.2637 172.807 14.6362C173.407 14.0181 174.11 13.5311 174.935 13.1845C175.76 12.838 176.65 12.6694 177.615 12.6694C178.6 12.6694 179.5 12.838 180.325 13.1845C181.149 13.5311 181.853 14.0087 182.434 14.6362C183.024 15.2543 183.483 16.0129 183.812 16.8933C184.139 17.7737 184.308 18.7477 184.308 19.8154ZM180.372 19.8154C180.372 18.6259 180.137 17.6894 179.659 17.0057C179.181 16.322 178.506 15.9849 177.625 15.9849C176.744 15.9849 176.06 16.322 175.582 17.0057C175.094 17.6894 174.86 18.6259 174.86 19.8154C174.86 21.0048 175.104 21.9507 175.582 22.6531C176.069 23.3555 176.744 23.702 177.625 23.702C178.506 23.702 179.181 23.3555 179.659 22.6531C180.128 21.9507 180.372 21.0048 180.372 19.8154Z" fill="#315C90"/>
<path d="M99.985 14.9731V14.2987C99.985 13.9335 100.023 13.5964 100.098 13.2873C100.173 12.9782 100.304 12.7066 100.491 12.4819C100.669 12.2571 100.922 12.0791 101.241 11.948C101.56 11.8169 101.953 11.7513 102.422 11.7513C102.769 11.7513 103.107 11.7794 103.444 11.8262C103.528 11.8356 103.613 11.8544 103.697 11.8731L105.037 9.05408C104.709 8.91358 104.306 8.78246 103.828 8.67008C103.35 8.55769 102.759 8.50146 102.038 8.50146C100.088 8.50146 98.6072 9.01658 97.6228 10.0562C96.6295 11.0957 96.1328 12.4912 96.1328 14.2519V26.6519H99.9945V18.1855H104.766V14.9731H99.985Z" fill="#315C90"/>
</g>
<defs>
<linearGradient id="paint0_linear" x1="17.6907" y1="6.58894" x2="26.7679" y2="16.9473" gradientUnits="userSpaceOnUse">
<stop offset="0.113698" stop-color="#87CDF3"/>
<stop offset="0.543722" stop-color="#3EB1EF"/>
<stop offset="1" stop-color="#4080CC"/>
</linearGradient>
<linearGradient id="paint1_linear" x1="23.9459" y1="9.75633" x2="25.7833" y2="13.321" gradientUnits="userSpaceOnUse">
<stop stop-color="#315C8F"/>
<stop offset="1" stop-color="#4080CC"/>
</linearGradient>
<linearGradient id="paint2_linear" x1="18.0042" y1="33.4109" x2="8.92688" y2="23.0525" gradientUnits="userSpaceOnUse">
<stop offset="0.113698" stop-color="#87CDF3"/>
<stop offset="0.543722" stop-color="#3EB1EF"/>
<stop offset="1" stop-color="#4080CC"/>
</linearGradient>
<linearGradient id="paint3_linear" x1="11.7491" y1="30.2437" x2="9.91175" y2="26.679" gradientUnits="userSpaceOnUse">
<stop stop-color="#315C8F"/>
<stop offset="1" stop-color="#4080CC"/>
</linearGradient>
<clipPath id="clip0">
<rect width="197.778" height="40" fill="white"/>
</clipPath>
</defs>
</svg>
