<svg width="158" height="282" viewBox="0 0 158 282" fill="none" xmlns="http://www.w3.org/2000/svg">
<path fill-rule="evenodd" clip-rule="evenodd" d="M47.6518 0.0629235C48.1695 -0.12949 48.7451 0.134194 48.9376 0.651877C52.4615 10.133 56.6147 25.304 57.6229 40.0445C58.6254 54.7023 56.5441 69.3276 47.1454 77.2643C24.4305 96.4458 -4.30177 103.48 -29.8074 108.482C-30.3493 108.588 -30.8748 108.235 -30.9811 107.693C-31.0874 107.151 -30.7342 106.625 -30.1922 106.519C-4.69779 101.52 23.5699 94.5548 45.855 75.7362C54.4564 68.4729 56.625 54.7649 55.6275 40.181C54.6357 25.6799 50.5389 10.7009 47.0629 1.34867C46.8705 0.830983 47.1341 0.255337 47.6518 0.0629235ZM30.1183 8.07607C30.6287 7.86515 31.2135 8.10795 31.4244 8.61837C35.6437 18.8291 38.2922 34.2013 32.2282 46.9425C26.1044 59.8093 11.3012 69.6046 -18.52 69.0001C-19.0722 68.9889 -19.5108 68.5322 -19.4996 67.98C-19.4884 67.4278 -19.0317 66.9893 -18.4795 67.0005C10.8992 67.596 24.7627 57.9745 30.4223 46.083C36.1416 34.0659 33.69 19.3381 29.576 9.38217C29.3651 8.87175 29.6079 8.28699 30.1183 8.07607ZM63.3047 10.4063C62.9767 9.962 62.3506 9.86774 61.9062 10.1958C61.4619 10.5238 61.3677 11.1499 61.6957 11.5942C68.2054 20.4111 76.2546 35.669 79.2023 52.7082C82.1463 69.7252 79.9943 88.4349 66.2436 104.346C52.3549 120.418 32.8054 133.807 13.9612 144.021C-4.87534 154.231 -22.9385 161.23 -33.7918 164.544C-34.32 164.705 -34.6175 165.264 -34.4562 165.792C-34.2949 166.321 -33.736 166.618 -33.2077 166.457C-22.2277 163.104 -4.04089 156.053 14.9142 145.779C33.8617 135.51 53.6455 121.983 67.7568 105.654C82.0062 89.1656 84.1875 69.792 81.1731 52.3673C78.1625 34.9648 69.9617 19.4228 63.3047 10.4063ZM84.9932 8.13834C85.4692 7.85832 86.0821 8.01722 86.3622 8.49325C93.8965 21.3016 104.16 42.6052 110.487 64.9402C116.799 87.2201 119.271 110.786 110.899 127.939C105.686 138.62 95.628 149.788 83.0833 160.617C70.5226 171.459 55.3969 182.022 39.9601 191.478C9.11929 210.37 -23.1177 224.939 -38.7795 228.476C-39.3182 228.597 -39.8536 228.259 -39.9752 227.721C-40.0969 227.182 -39.7588 226.646 -39.22 226.525C-23.8819 223.061 8.13115 208.63 38.9154 189.773C54.291 180.354 69.3215 169.854 81.7765 159.103C94.2475 148.338 104.065 137.381 109.102 127.062C117.129 110.614 114.851 87.6805 108.563 65.4854C102.291 43.3454 92.104 22.199 84.6383 9.50729C84.3583 9.03126 84.5172 8.41836 84.9932 8.13834ZM103.745 11.333C103.377 10.9217 102.744 10.8869 102.333 11.2554C101.922 11.6239 101.887 12.2562 102.255 12.6675C116.535 28.6072 135.658 55.2565 146.619 83.3636C157.595 111.511 160.272 140.791 142.233 162.359C123.944 184.227 90.6472 208.406 56.3588 229.777C22.0983 251.13 -13.0438 269.612 -34.9318 280.098C-35.4299 280.337 -35.6402 280.934 -35.4016 281.432C-35.163 281.93 -34.5658 282.141 -34.0677 281.902C-12.1224 271.388 23.0855 252.871 57.4167 231.474C91.72 210.094 125.257 185.774 143.767 163.642C162.529 141.21 159.539 110.99 148.482 82.637C137.409 54.244 118.132 27.3933 103.745 11.333Z" fill="url(#paint0_linear_260:1379)"/>
<defs>
<linearGradient id="paint0_linear_260:1379" x1="30" y1="0.000243629" x2="85.5" y2="240" gradientUnits="userSpaceOnUse">
<stop stop-color="#0C415A" stop-opacity="0.4"/>
<stop offset="1" stop-color="#0C415A" stop-opacity="0"/>
</linearGradient>
</defs>
</svg>
